<?xml version="1.0" standalone="no"?>
<!DOCTYPE svg PUBLIC "-//W3C//DTD SVG 20010904//EN"
 "http://www.w3.org/TR/2001/REC-SVG-20010904/DTD/svg10.dtd">
<svg version="1.0" xmlns="http://www.w3.org/2000/svg"
 width="400.000000pt" height="400.000000pt" viewBox="0 0 400.000000 400.000000"
 preserveAspectRatio="xMidYMid meet">

<g transform="translate(0.000000,400.000000) scale(0.100000,-0.100000)"
fill="#000000" stroke="none">
<path d="M1782 3157 c-6 -7 -12 -51 -14 -97 l-3 -85 -264 -3 c-164 -1 -269 -6
-277 -13 -19 -16 -27 -82 -14 -128 l11 -41 249 0 c188 0 251 -3 257 -12 9 -15
8 -186 -1 -196 -4 -3 -117 -8 -251 -10 -199 -4 -247 -7 -257 -19 -13 -16 -16
-173 -3 -192 4 -7 95 -11 279 -11 198 0 275 -3 284 -12 18 -18 16 -212 -1
-227 -10 -7 -133 -12 -393 -13 l-379 -3 0 -30 c0 -30 7 -34 483 -273 l483
-243 254 -11 c289 -12 466 -2 580 33 55 17 78 31 120 73 63 62 80 117 73 235
-6 95 -22 124 -105 191 -35 28 -63 55 -63 59 0 5 20 30 45 55 98 102 99 267 0
362 -23 23 -82 66 -131 96 -154 95 -927 528 -942 528 -5 0 -14 -6 -20 -13z"/>
<path d="M2935 1347 c-11 -9 -15 -19 -10 -27 6 -10 9 -10 15 1 7 10 16 10 50
-1 36 -12 43 -12 57 3 20 20 10 35 -11 18 -11 -10 -21 -9 -45 3 -36 19 -33 19
-56 3z"/>
<path d="M570 1135 l0 -145 100 0 100 0 0 30 c0 29 -1 29 -62 32 -57 3 -63 5
-66 26 -3 20 1 22 42 22 44 0 46 1 46 30 0 29 -2 30 -45 30 -41 0 -45 2 -45
25 0 24 3 25 60 25 l60 0 0 35 0 35 -95 0 -95 0 0 -145z"/>
<path d="M810 1135 l0 -145 85 0 c78 0 88 2 110 25 33 32 33 78 0 109 -22 21
-23 25 -10 36 9 7 15 29 15 52 0 35 -3 40 -35 54 -19 7 -64 14 -100 14 l-65 0
0 -145z m125 50 c0 -14 -8 -21 -27 -23 -24 -3 -28 0 -28 23 0 23 4 26 28 23
19 -2 27 -9 27 -23z m3 -84 c25 -16 9 -46 -26 -49 -30 -3 -32 -1 -32 27 0 26
4 31 23 31 12 0 28 -4 35 -9z"/>
<path d="M1187 1273 c-4 -3 -7 -69 -7 -145 l0 -138 95 0 c78 0 95 3 95 15 0
12 -15 15 -75 15 l-75 0 0 50 0 50 61 0 c81 0 77 24 -4 28 l-57 3 0 49 0 50
70 0 c56 0 70 3 70 15 0 12 -16 15 -83 15 -46 0 -87 -3 -90 -7z"/>
<path d="M1430 1135 l0 -145 66 0 c41 0 79 6 101 17 68 32 92 142 47 211 -23
35 -90 62 -156 62 l-58 0 0 -145z m134 101 c44 -18 66 -51 66 -98 0 -79 -41
-118 -125 -118 l-45 0 0 108 c0 60 3 112 7 115 11 12 62 8 97 -7z"/>
<path d="M1730 1167 c0 -127 9 -149 67 -173 49 -21 107 -4 133 39 17 26 20 51
20 140 0 85 -3 107 -14 107 -11 0 -15 -23 -18 -109 -4 -128 -16 -151 -79 -151
-29 0 -42 6 -58 26 -18 23 -21 41 -21 130 0 86 -3 104 -15 104 -12 0 -15 -19
-15 -113z"/>
<path d="M2082 1263 c-19 -9 -41 -32 -53 -54 -54 -106 13 -223 127 -221 44 0
104 28 104 47 0 23 -13 24 -38 5 -34 -27 -101 -27 -135 0 -46 36 -55 112 -20
166 30 47 113 55 155 17 13 -12 22 -13 29 -6 16 16 2 33 -37 49 -44 18 -91 17
-132 -3z"/>
<path d="M2406 1271 c-7 -10 -106 -271 -106 -277 0 -2 7 -4 15 -4 8 0 21 16
29 35 15 35 15 35 80 35 l65 0 12 -35 c8 -22 20 -35 31 -35 20 0 26 -22 -56
195 -32 84 -54 112 -70 86z m48 -113 l25 -68 -54 0 c-30 0 -55 2 -55 5 0 2 8
26 18 52 11 26 22 57 26 67 9 25 10 23 40 -56z"/>
<path d="M2643 1260 c-102 -62 -84 -244 27 -267 19 -3 29 -10 26 -18 -2 -7 4
-15 15 -18 27 -7 24 -24 -8 -35 -24 -9 -25 -11 -6 -11 34 -1 53 10 53 30 0 11
-7 22 -15 25 -19 8 -10 24 13 24 9 0 32 9 50 20 28 17 32 23 22 35 -11 13 -16
12 -37 -5 -57 -44 -152 -13 -169 55 -27 106 71 189 161 136 39 -23 65 -20 44
6 -38 44 -123 56 -176 23z"/>
<path d="M2944 1208 c-15 -40 -39 -106 -55 -145 -25 -67 -26 -73 -9 -73 12 0
22 12 30 35 l12 35 64 0 c65 0 65 0 80 -35 8 -19 21 -35 30 -35 19 0 20 -4
-41 158 -60 160 -71 165 -111 60z m75 -51 c11 -32 21 -60 21 -62 0 -3 -22 -5
-50 -5 -27 0 -50 4 -50 8 0 23 43 132 50 125 4 -4 17 -34 29 -66z"/>
<path d="M3212 1260 c-127 -78 -75 -273 73 -273 110 0 178 113 127 213 -37 74
-131 102 -200 60z m137 -36 c36 -30 51 -75 40 -124 -23 -105 -175 -109 -209
-6 -36 110 84 202 169 130z"/>
</g>
</svg>
